<?xml version="1.0" standalone="no"?>
<!DOCTYPE svg PUBLIC "-//W3C//DTD SVG 20010904//EN"
 "http://www.w3.org/TR/2001/REC-SVG-20010904/DTD/svg10.dtd">
<svg version="1.0" xmlns="http://www.w3.org/2000/svg"
 width="2049.000000pt" height="2049.000000pt" viewBox="0 0 2049.000000 2049.000000"
 preserveAspectRatio="xMidYMid meet">
<metadata>
Created by potrace 1.11, written by Peter Selinger 2001-2013
</metadata>
<g transform="translate(0.000000,2049.000000) scale(0.100000,-0.100000)"
fill="#000000" stroke="none">
<path d="M3789 20486 c-2 -2 -49 -6 -104 -10 -55 -3 -111 -8 -125 -10 -14 -2
-52 -8 -85 -12 -33 -4 -62 -8 -65 -9 -3 0 -27 -4 -55 -8 -27 -5 -84 -14 -125
-23 -41 -8 -85 -16 -97 -18 -70 -14 -307 -81 -421 -120 -509 -175 -968 -443
-1372 -801 -71 -62 -289 -283 -356 -360 -328 -376 -603 -852 -766 -1325 -24
-71 -91 -296 -103 -350 -26 -108 -71 -359 -81 -442 -3 -29 -7 -64 -10 -78 -2
-14 -7 -70 -11 -125 -10 -131 -9 -13006 0 -13110 17 -176 19 -193 48 -365 50
-298 161 -665 281 -930 78 -172 189 -382 253 -480 12 -19 43 -67 68 -106 26
-40 86 -125 135 -191 320 -429 715 -781 1197 -1068 198 -117 545 -272 780
-347 189 -60 468 -126 604 -143 30 -4 62 -8 72 -10 10 -2 49 -7 86 -10 37 -4
76 -9 86 -11 10 -1 73 -6 140 -10 156 -9 12815 -9 12962 0 168 10 347 32 495
61 14 3 41 8 60 11 93 17 347 83 435 114 33 12 68 23 77 25 44 9 319 125 453
191 219 107 556 315 677 419 13 11 39 32 58 46 19 15 46 36 60 48 14 12 61 53
105 91 144 125 357 352 484 515 34 44 67 87 74 95 42 52 200 296 260 400 118
206 296 612 333 760 2 8 19 69 39 134 29 101 77 308 90 396 34 215 40 268 51
440 10 136 9 12850 0 12995 -4 61 -9 121 -11 135 -2 14 -7 52 -10 85 -4 33
-13 96 -20 140 -8 44 -17 97 -20 118 -12 89 -72 321 -127 497 -116 370 -378
873 -605 1160 -6 8 -40 51 -74 95 -351 447 -834 834 -1364 1095 -340 166 -670
275 -1045 344 -14 3 -35 7 -47 10 -11 2 -43 7 -70 11 -26 4 -59 8 -72 10 -13
3 -57 7 -98 10 -41 4 -84 9 -96 13 -23 7 -13020 15 -13028 8z"/>
</g>
</svg>
